<svg width="30" height="30" viewBox="0 0 30 30" fill="none" xmlns="http://www.w3.org/2000/svg">
<path d="M3 4.5C3.82969 4.5 4.5 5.17031 4.5 6V16.5H15V10.5C15 9.67031 15.6703 9 16.5 9H24C26.4844 9 28.5 11.0156 28.5 13.5V24C28.5 24.8297 27.8297 25.5 27 25.5C26.1703 25.5 25.5 24.8297 25.5 24V21H4.5V24C4.5 24.8297 3.82969 25.5 3 25.5C2.17031 25.5 1.5 24.8297 1.5 24V6C1.5 5.17031 2.17031 4.5 3 4.5ZM6.75 12C6.75 10.3453 8.09531 9 9.75 9C11.4047 9 12.75 10.3453 12.75 12C12.75 13.6547 11.4047 15 9.75 15C8.09531 15 6.75 13.6547 6.75 12Z" fill="#4A1301"/>
</svg>
