<svg width="30" height="30" viewBox="0 0 30 30" fill="none" xmlns="http://www.w3.org/2000/svg">
<g clip-path="url(#clip0_547_357)">
<path d="M29.1094 28.2309H26.4153C25.8714 28.2309 25.535 27.983 24.9877 27.5445C23.1985 26.1153 21.7609 26.0865 19.9358 27.5445C18.7759 28.4737 18.184 28.4751 17.0219 27.5445C15.2328 26.1153 13.7954 26.0865 11.9703 27.5445C11.423 27.983 11.0866 28.2309 10.5428 28.2309H8.78563C8.30086 28.2309 7.90695 27.837 7.90695 27.3522V26.349C9.41849 25.9563 10.5428 24.4754 10.5428 22.8423H7.90695C7.42172 22.8423 7.0285 22.4491 7.0285 21.9639C7.0285 21.4784 7.42172 21.0852 7.90695 21.0852H11.4212C12.8746 21.0852 14.057 19.903 14.057 18.4496V16.0427C13.4894 16.2831 12.9041 16.5071 12.2999 16.7191V18.4496C12.2999 18.9344 11.906 19.3281 11.4212 19.3281H10.5428V17.2238C9.69269 17.4217 8.82225 17.571 7.90695 17.571C6.32469 17.571 4.83398 17.1812 3.51425 16.5042V22.8423C3.51425 24.4754 4.63829 25.9563 6.14983 26.349V27.3522C6.14983 28.8056 7.33223 29.988 8.78563 29.988H10.5428C11.7293 29.988 12.4713 29.3943 13.0685 28.9173C14.2287 27.9881 14.762 27.9867 15.9238 28.9173C17.7129 30.3465 19.2089 30.3751 21.034 28.9173C22.1942 27.9881 22.7275 27.9867 23.8893 28.9173C24.4867 29.3943 25.2287 29.988 26.4153 29.988H29.1094C29.5951 29.988 29.9881 29.595 29.9881 29.1094C29.9881 28.6239 29.5951 28.2309 29.1094 28.2309Z" fill="#4A1301"/>
<path d="M7.90695 10.5429C9.36035 10.5429 10.5428 9.36046 10.5428 7.90706C10.5428 6.45366 9.36035 5.27148 7.90695 5.27148C6.45355 5.27148 5.27138 6.45366 5.27138 7.90706C5.27138 9.36046 6.45355 10.5429 7.90695 10.5429Z" fill="#4A1301"/>
<path d="M0 7.90695C0 12.2671 3.54675 15.8139 7.90695 15.8139C10.2225 15.8139 12.3514 14.883 14.4086 13.9831C16.3889 13.1174 18.317 12.2999 20.2654 12.2999H21.1439V3.51425H20.2654C18.317 3.51425 16.3889 2.69668 14.4086 1.83082C12.3514 0.930862 10.2225 0 7.90695 0C3.54675 0 0 3.54675 0 7.90695ZM7.90695 3.51425C10.329 3.51425 12.2999 5.48492 12.2999 7.90695C12.2999 10.329 10.329 12.2999 7.90695 12.2999C5.48492 12.2999 3.51425 10.329 3.51425 7.90695C3.51425 5.48492 5.48492 3.51425 7.90695 3.51425Z" fill="#4A1301"/>
<path d="M22.901 12.6397L27.0158 14.0114C27.2715 14.0981 27.5697 14.062 27.8078 13.8912C28.0369 13.7255 28.1724 13.4605 28.1724 13.1782V2.6355C28.1724 2.35328 28.0369 2.08824 27.8078 1.92253C27.5777 1.75705 27.2818 1.71081 27.0158 1.80259L22.901 3.17405V12.6397Z" fill="#4A1301"/>
</g>
<defs>
<clipPath id="clip0_547_357">
<rect width="30" height="30" fill="white"/>
</clipPath>
</defs>
</svg>
