<svg width="30" height="30" viewBox="0 0 30 30" fill="none" xmlns="http://www.w3.org/2000/svg">
<path d="M6.36264 1.64697C2.85237 1.64697 0 4.49262 0 8.00282V16.5824H12.7253V8.00282C12.7253 4.49262 9.8729 1.64697 6.36264 1.64697Z" fill="#4A1301"/>
<path d="M1.12088 23.0992C1.12088 26.0007 3.49411 28.3528 6.39561 28.3528C9.2971 28.3528 11.6703 26.0007 11.6703 23.0992V18.5603H1.12088V23.0992Z" fill="#4A1301"/>
<path d="M23.6703 1.64697C20.1601 1.64697 17.3407 4.49256 17.3407 8.00282V16.5824H30V8.00282C30 4.49262 27.1806 1.64697 23.6703 1.64697Z" fill="#4A1301"/>
<path d="M18.3956 23.0992C18.3956 26.0007 20.7688 28.3528 23.6703 28.3528C26.5718 28.3528 28.9451 26.0007 28.9451 23.0992V18.5603H18.3956V23.0992Z" fill="#4A1301"/>
</svg>
