<svg width="30" height="30" viewBox="0 0 30 30" fill="none" xmlns="http://www.w3.org/2000/svg">
<g clip-path="url(#clip0_547_374)">
<path d="M26.2499 10.625C28.3211 10.625 29.9999 12.3041 29.9999 14.375C29.9999 16.4462 28.3211 18.125 26.2499 18.125H25.5626C25.7149 17.7167 25.8419 17.2992 25.9426 16.875H26.2499C27.6308 16.875 28.7499 15.7559 28.7499 14.375C28.7499 12.9944 27.6308 11.875 26.2499 11.875H25.9664C25.8358 11.4398 25.6569 11.0208 25.4339 10.625H26.2499ZM26.2111 13.125H26.2499C26.9405 13.125 27.4999 13.6847 27.4999 14.375C27.4999 15.0653 26.9405 15.625 26.2499 15.625H26.1687C26.22 15.2103 26.2471 14.7931 26.2499 14.375V13.7112C26.2499 13.5132 26.2294 13.3194 26.2111 13.125ZM15.6249 3.125C16.3155 3.125 16.8749 3.68469 16.8749 4.375H14.3749C14.3749 3.68469 14.9346 3.125 15.6249 3.125ZM13.1249 5.625H18.1249C19.1085 5.62592 20.0341 6.08887 20.6249 6.875H10.625C11.2158 6.08887 12.1417 5.62592 13.1249 5.625ZM18.7499 24.375C18.7499 25.7559 17.6308 26.875 16.2499 26.875C14.8693 26.875 13.7499 25.7559 13.7499 24.375V21.875H18.7499V24.375ZM27.4999 21.875V24.375C27.4999 25.7559 26.3808 26.875 24.9999 26.875C23.6193 26.875 22.4999 25.7559 22.4999 24.375V21.875H27.4999ZM22.6012 20.625H21.8749C21.5298 20.625 21.2499 20.9048 21.2499 21.25V21.8695C20.9936 22.0645 20.7271 22.2461 20.4519 22.4139L19.9999 22.4176V21.25C19.9999 20.9048 19.7201 20.625 19.3749 20.625H13.1249C12.7798 20.625 12.4999 20.9048 12.4999 21.25V22.485L10.9426 22.5C10.404 22.1863 9.89773 21.8204 9.43081 21.4075C9.31667 21.3071 9.16958 21.2515 9.0176 21.2512H7.34372C5.09764 21.2512 3.64439 19.8251 3.02642 17.0258L2.0108 11.875H3.51561L5.27372 13.4088C5.44676 13.5599 5.68845 13.6038 5.9036 13.5233C6.11875 13.443 6.27225 13.251 6.30399 13.0237C6.53012 11.394 7.55002 9.98291 9.02645 9.2569C9.24038 9.15131 9.37588 8.93311 9.37496 8.69446V8.125H21.8749V8.69568C21.8743 8.93463 22.0101 9.15283 22.2243 9.25812C23.9278 10.0867 25.0066 11.817 24.9999 13.7112V14.375C25.0014 16.6833 24.1466 18.9102 22.6012 20.625Z" fill="#4A1301"/>
<path d="M0.612484 9.37512H0.624996C0.965571 9.37512 1.24328 9.10291 1.24999 8.76263C1.25915 8.36102 1.4392 7.98199 1.74499 7.72137C2.25371 7.2395 2.54668 6.5733 2.55767 5.87262C2.56102 5.70691 2.49816 5.54639 2.38311 5.42676C2.26806 5.30713 2.11028 5.23816 1.94457 5.23511C1.60247 5.23602 1.32171 5.5058 1.30767 5.8476C1.29852 6.24951 1.11846 6.62823 0.812678 6.88885C0.303952 7.37073 0.010985 8.03723 -1.29829e-06 8.73761C-0.00671514 9.08276 0.267332 9.36841 0.612484 9.37512Z" fill="#4A1301"/>
<path d="M3.83696 9.37512C4.17723 9.37512 4.45524 9.10291 4.46196 8.76263C4.47142 8.36102 4.65147 7.9823 4.95695 7.72137C5.46568 7.23981 5.75864 6.5733 5.76963 5.87262C5.77634 5.52747 5.5023 5.24213 5.15684 5.23511C4.81535 5.23724 4.5352 5.50641 4.51963 5.8476C4.51017 6.24951 4.33012 6.62823 4.02434 6.88885C3.51622 7.37103 3.22325 8.03723 3.21196 8.73761C3.20494 9.08276 3.47929 9.36841 3.82445 9.37512H3.83696Z" fill="#4A1301"/>
</g>
<defs>
<clipPath id="clip0_547_374">
<rect width="30" height="30" fill="white"/>
</clipPath>
</defs>
</svg>
