<svg width="30" height="30" viewBox="0 0 30 30" fill="none" xmlns="http://www.w3.org/2000/svg">
<path d="M11.2969 3.26719L15 4.5L18.7031 3.26719C19.2328 3.08906 19.7812 3 20.3391 3C23.1891 3 25.5 5.31094 25.5 8.16094V11.3719C25.5 12.75 25.0547 14.0953 24.225 15.1969L24.1734 15.2672C23.5688 16.0734 23.175 17.0203 23.0344 18.0187L22.0172 25.1203C21.8625 26.1984 20.9391 27 19.8516 27C18.7828 27 17.8687 26.2266 17.6953 25.1719L16.7484 19.4813C16.6078 18.6281 15.8672 18 15 18C14.1328 18 13.3969 18.6281 13.2516 19.4813L12.3047 25.1719C12.1266 26.2266 11.2172 27 10.1484 27C9.06094 27 8.1375 26.1984 7.98281 25.1203L6.96563 18.0234C6.825 17.025 6.43125 16.0781 5.82656 15.2719L5.775 15.2016C4.94531 14.0953 4.5 12.7547 4.5 11.3766V8.16562C4.5 5.31094 6.81094 3 9.66094 3C10.2188 3 10.7672 3.08906 11.2969 3.26719Z" fill="#4A1301"/>
</svg>
