<svg width="30" height="30" viewBox="0 0 30 30" fill="none" xmlns="http://www.w3.org/2000/svg">
<g clip-path="url(#clip0_547_368)">
<path d="M27.3047 2.63672C27.3047 1.18049 26.1242 0 24.668 0C23.2117 0 22.0312 1.18049 22.0312 2.63672V14.1211H27.3047V2.63672Z" fill="#4A1301"/>
<path d="M22.0312 19.3945H26.4258C26.9112 19.3945 27.3047 19.001 27.3047 18.5156V15.8789H22.0312V19.3945Z" fill="#4A1301"/>
<path d="M20.2734 2.63672C20.2734 1.64367 20.6171 0.736758 21.1748 0H7.08984C4.66277 0 2.69531 1.96746 2.69531 4.39453V22.9102H20.2734V2.63672Z" fill="#4A1301"/>
<path d="M2.69531 29.1211C2.69531 29.6065 3.08883 30 3.57422 30H19.3945C19.8799 30 20.2734 29.6065 20.2734 29.1211V24.668H2.69531V29.1211Z" fill="#4A1301"/>
</g>
<defs>
<clipPath id="clip0_547_368">
<rect width="30" height="30" fill="white"/>
</clipPath>
</defs>
</svg>
