<svg width="30" height="30" viewBox="0 0 30 30" fill="none" xmlns="http://www.w3.org/2000/svg">
<g clip-path="url(#clip0_547_350)">
<path d="M25.8172 9.29596C25.7558 9.24533 25.6921 9.19857 25.6271 9.15416C24.6576 5.21807 21.5531 2.11354 17.6169 1.14404C17.5726 1.07924 17.526 1.01561 17.4755 0.954316C16.9757 0.347871 16.2382 0 15.4523 0H14.5477C13.762 0 13.0247 0.347695 12.5248 0.953906C12.4742 1.01531 12.4275 1.07906 12.383 1.14404C8.44693 2.11354 5.3424 5.21807 4.37285 9.15422C4.30805 9.19857 4.24441 9.24516 4.18313 9.29566C3.57662 9.79553 3.22881 10.533 3.22881 11.3189V12.2235C3.22881 13.0092 3.5765 13.7465 4.18272 14.2464C4.2443 14.2972 4.30793 14.3447 4.37315 14.3893C5.34293 18.3248 8.44729 21.4289 12.383 22.3983C12.4274 22.4631 12.474 22.5268 12.5245 22.5881C12.5904 22.668 12.6608 22.7433 12.7345 22.8141V25.1299H12.2217C10.0488 25.1299 8.281 26.8977 8.281 29.0706V29.1211C8.281 29.6065 8.67451 30 9.1599 30H20.8401C21.3255 30 21.719 29.6065 21.719 29.1211V29.0705C21.719 26.8976 19.9512 25.1298 17.7783 25.1298H17.2655V22.8141C17.3391 22.7433 17.4093 22.6683 17.4752 22.5884C17.5258 22.527 17.5725 22.4633 17.617 22.3983C21.5527 21.4288 24.657 18.3248 25.6269 14.3893C25.692 14.3448 25.7554 14.2973 25.8169 14.2467C26.4234 13.7468 26.7712 13.0094 26.7712 12.2235V11.3189C26.7712 10.5332 26.4235 9.79588 25.8172 9.29596ZM19.0627 11.7244C19.0627 12.5351 18.8269 13.3093 18.3881 13.9693C19.006 13.9597 19.6235 14.014 20.2334 14.1326L23.6486 14.7971C23.6565 14.7987 23.6644 14.7997 23.6722 14.8012C22.7501 17.433 20.6618 19.5213 18.0298 20.4435C18.0284 20.4359 18.0275 20.4284 18.026 20.4208L17.3607 16.9939C17.242 16.382 17.188 15.7625 17.1983 15.1426C16.5304 15.5731 15.7632 15.7891 14.9959 15.7892C14.2315 15.7893 13.4677 15.5749 12.8017 15.1478C12.8122 15.7696 12.758 16.391 12.6387 17.0047L11.9742 20.4198C11.9727 20.4277 11.9718 20.4356 11.9703 20.4435C9.33826 19.5213 7.24998 17.4331 6.32777 14.8011C6.33533 14.7997 6.34289 14.7987 6.35045 14.7973L9.77736 14.132C10.381 14.0148 10.9921 13.9607 11.6036 13.9691C11.165 13.3092 10.9292 12.535 10.9292 11.7244C10.9292 10.9522 11.1441 10.2132 11.5437 9.57434C10.9486 9.57902 10.354 9.52418 9.76658 9.40986L6.3515 8.74541C6.34359 8.74389 6.33563 8.74295 6.32772 8.74148C7.24992 6.10945 9.3382 4.02117 11.9702 3.09896C11.9716 3.10652 11.9726 3.11414 11.974 3.1217L12.6393 6.5485C12.7517 7.12764 12.8061 7.71357 12.803 8.30021C14.1371 7.44551 15.8644 7.44709 17.197 8.30531C17.1929 7.71334 17.2477 7.12213 17.3614 6.53789L18.0258 3.12275C18.0274 3.11484 18.0283 3.10687 18.0298 3.09896C20.6618 4.02117 22.7501 6.10945 23.6723 8.74148C23.6647 8.74289 23.6571 8.74377 23.6495 8.74523L20.2228 9.41051C19.6361 9.52447 19.0424 9.57902 18.4481 9.57422C18.8478 10.2132 19.0627 10.9521 19.0627 11.7244Z" fill="#4A1301"/>
<path d="M16.6286 10.0917C16.1784 9.64156 15.5872 9.4165 14.9959 9.4165C14.4046 9.4165 13.8134 9.64162 13.3632 10.0917C12.463 10.9919 12.463 12.4567 13.3632 13.357C14.2635 14.2572 15.7283 14.2572 16.6286 13.357C17.0647 12.9209 17.3049 12.3411 17.3049 11.7244C17.3048 11.1076 17.0646 10.5278 16.6286 10.0917Z" fill="#4A1301"/>
</g>
<defs>
<clipPath id="clip0_547_350">
<rect width="30" height="30" fill="white"/>
</clipPath>
</defs>
</svg>
