<svg width="30" height="30" viewBox="0 0 30 30" fill="none" xmlns="http://www.w3.org/2000/svg">
<path d="M22.0594 26.5594L26.5594 22.0594C26.9906 21.6281 27.1172 20.9859 26.8828 20.4234C26.6484 19.8609 26.1047 19.5 25.5 19.5H22.5V4.5C22.5 3.67031 21.8297 3 21 3C20.1703 3 19.5 3.67031 19.5 4.5V19.5H16.5C15.8953 19.5 15.3469 19.8656 15.1125 20.4281C14.8781 20.9906 15.0094 21.6328 15.4359 22.0641L19.9359 26.5641C20.5219 27.15 21.4734 27.15 22.0594 26.5641V26.5594ZM10.0594 3.44063C9.47344 2.85469 8.52187 2.85469 7.93594 3.44063L3.43594 7.94062C3.00469 8.37187 2.87812 9.01406 3.1125 9.57656C3.34687 10.1391 3.89531 10.5 4.5 10.5H7.5V25.5C7.5 26.3297 8.17031 27 9 27C9.82969 27 10.5 26.3297 10.5 25.5V10.5H13.5C14.1047 10.5 14.6531 10.1344 14.8875 9.57187C15.1219 9.00937 14.9906 8.36719 14.5641 7.93594L10.0641 3.43594L10.0594 3.44063Z" fill="#4A1301"/>
</svg>
