<svg width="30" height="30" viewBox="0 0 30 30" fill="none" xmlns="http://www.w3.org/2000/svg">
<g clip-path="url(#clip0_543_239)">
<path fill-rule="evenodd" clip-rule="evenodd" d="M13.6607 0H5.35714C3.58193 0 2.14285 1.43908 2.14285 3.21429V26.7857C2.14285 28.5609 3.58193 30 5.35714 30H13.6607V0ZM16.3393 30H24.6429C26.418 30 27.8571 28.5609 27.8571 26.7857V3.21429C27.8571 1.43908 26.418 0 24.6429 0H16.3393V30ZM20.3571 12.5069C21.0968 12.5069 21.6964 13.1065 21.6964 13.8462V16.1539C21.6964 16.8935 21.0968 17.4932 20.3571 17.4932C19.6175 17.4932 19.0179 16.8935 19.0179 16.1539V13.8462C19.0179 13.1065 19.6175 12.5069 20.3571 12.5069ZM10.9821 13.8462C10.9821 13.1065 10.3825 12.5069 9.64285 12.5069C8.90318 12.5069 8.30357 13.1065 8.30357 13.8462V16.1539C8.30357 16.8935 8.90318 17.4932 9.64285 17.4932C10.3825 17.4932 10.9821 16.8935 10.9821 16.1539V13.8462Z" fill="#4A1301"/>
</g>
<defs>
<clipPath id="clip0_543_239">
<rect width="30" height="30" fill="white"/>
</clipPath>
</defs>
</svg>
