<svg width="30" height="30" viewBox="0 0 30 30" fill="none" xmlns="http://www.w3.org/2000/svg">
<g clip-path="url(#clip0_498_221)">
<path d="M15.0708 26.2888C17.0064 26.2888 18.5756 24.7197 18.5756 22.7841C18.5756 20.8484 17.0064 19.2793 15.0708 19.2793C13.1352 19.2793 11.566 20.8484 11.566 22.7841C11.566 24.7197 13.1352 26.2888 15.0708 26.2888Z" fill="#4A1301"/>
<path d="M23.447 14.3399C23.395 14.2864 23.3401 14.2388 23.2866 14.1896L23.1292 14.0408C23.1032 14.0134 23.0743 13.9932 23.041 13.9672C18.5091 9.84986 11.5732 10.0131 7.24791 14.3384L6.74083 14.847L6.03872 15.5491C5.18347 16.4043 5.18781 17.7984 6.0445 18.6551C6.90263 19.5147 8.29674 19.5161 9.15054 18.6609L10.3612 17.4503C13.1118 14.7011 17.586 14.7011 20.3352 17.4488L21.2092 18.2954C22.0558 19.142 23.4369 19.1405 24.2878 18.2882C24.6995 17.8779 24.9263 17.3304 24.9278 16.7482C24.9292 16.1688 24.7053 15.6213 24.2936 15.2125L23.447 14.3399Z" fill="#4A1301"/>
<path d="M29.4178 10.0073L28.6897 9.2792C28.6868 9.27632 28.6853 9.27198 28.6796 9.27054L28.1046 8.69267C28.0035 8.59299 27.8937 8.50631 27.7781 8.43118C20.3915 1.94607 9.15631 2.14543 2.0052 9.02494C1.97053 9.05673 1.93152 9.0784 1.89685 9.11307L0.582202 10.4292C-0.19792 11.2078 -0.193586 12.4748 0.59087 13.2593C1.37388 14.0423 2.64086 14.0481 3.42098 13.2665L4.73563 11.9533C4.74429 11.9417 4.75152 11.9316 4.76018 11.9244C10.5432 6.33786 19.7168 6.30319 25.5461 11.8103L26.5805 12.8461C27.3591 13.6248 28.629 13.6219 29.412 12.8389C30.1936 12.0544 30.1965 10.786 29.4178 10.0073Z" fill="#4A1301"/>
</g>
<defs>
<clipPath id="clip0_498_221">
<rect width="30" height="30" fill="white"/>
</clipPath>
</defs>
</svg>
