<svg width="30" height="30" viewBox="0 0 30 30" fill="none" xmlns="http://www.w3.org/2000/svg">
<g clip-path="url(#clip0_547_335)">
<path d="M13.75 28.7461H23.75V24.9966H13.75V28.7461ZM18.125 26.2464H19.375C19.5408 26.2464 19.6997 26.3122 19.8169 26.4294C19.9342 26.5466 20 26.7056 20 26.8713C20 27.0371 19.9342 27.196 19.8169 27.3132C19.6997 27.4304 19.5408 27.4962 19.375 27.4962H18.125C17.9592 27.4962 17.8003 27.4304 17.6831 27.3132C17.5658 27.196 17.5 27.0371 17.5 26.8713C17.5 26.7056 17.5658 26.5466 17.6831 26.4294C17.8003 26.3122 17.9592 26.2464 18.125 26.2464Z" fill="#4A1301"/>
<path d="M13.75 23.7468H23.75V19.9973H13.75V23.7468ZM18.125 21.2471H19.375C19.5408 21.2471 19.6997 21.313 19.8169 21.4302C19.9342 21.5474 20 21.7063 20 21.8721C20 22.0378 19.9342 22.1967 19.8169 22.3139C19.6997 22.4311 19.5408 22.497 19.375 22.497H18.125C17.9592 22.497 17.8003 22.4311 17.6831 22.3139C17.5658 22.1967 17.5 22.0378 17.5 21.8721C17.5 21.7063 17.5658 21.5474 17.6831 21.4302C17.8003 21.313 17.9592 21.2471 18.125 21.2471Z" fill="#4A1301"/>
<path d="M29.375 16.2478H0.625C0.279822 16.2478 0 16.5276 0 16.8727V18.1225C0 18.4677 0.279822 18.7475 0.625 18.7475H29.375C29.7202 18.7475 30 18.4677 30 18.1225V16.8727C30 16.5276 29.7202 16.2478 29.375 16.2478Z" fill="#4A1301"/>
<path d="M25 19.9973H28.125V29.9959H25V19.9973Z" fill="#4A1301"/>
<path d="M1.875 19.9973H5V29.9959H1.875V19.9973Z" fill="#4A1301"/>
<path d="M15 9.99885C15.0007 10.6616 15.2643 11.297 15.733 11.7656C16.2017 12.2342 16.8372 12.4978 17.5 12.4985H27.5C28.1628 12.4978 28.7983 12.2342 29.267 11.7656C29.7357 11.297 29.9993 10.6616 30 9.99885V8.74902H15V9.99885ZM21.875 9.99885H23.125C23.2908 9.99885 23.4497 10.0647 23.5669 10.1819C23.6842 10.2991 23.75 10.458 23.75 10.6238C23.75 10.7895 23.6842 10.9485 23.5669 11.0656C23.4497 11.1828 23.2908 11.2487 23.125 11.2487H21.875C21.7092 11.2487 21.5503 11.1828 21.4331 11.0656C21.3158 10.9485 21.25 10.7895 21.25 10.6238C21.25 10.458 21.3158 10.2991 21.4331 10.1819C21.5503 10.0647 21.7092 9.99885 21.875 9.99885Z" fill="#4A1301"/>
<path d="M27.5 0.624756H17.5C16.8372 0.625451 16.2017 0.88903 15.733 1.35766C15.2643 1.82628 15.0007 2.46168 15 3.12441V7.49881H30V3.12441C29.9993 2.46168 29.7357 1.82628 29.267 1.35766C28.7983 0.88903 28.1628 0.625451 27.5 0.624756Z" fill="#4A1301"/>
<path d="M11.25 9.44902C11.6201 9.45077 11.983 9.34659 12.2958 9.14878C12.6086 8.95098 12.8583 8.66781 13.0153 8.33271C13.1724 7.99762 13.2303 7.62458 13.1822 7.25766C13.134 6.89073 12.9819 6.54524 12.7437 6.26196L10.0125 8.99284C10.358 9.28663 10.7965 9.44828 11.25 9.44902Z" fill="#4A1301"/>
<path d="M1.875 11.2484C1.97836 11.2466 2.08138 11.2361 2.183 11.2171L3.24256 13.1231H3.125C2.62817 13.1246 2.15209 13.3226 1.80078 13.6738C1.44946 14.0251 1.25145 14.5011 1.25 14.9979H8.75C8.74855 14.5011 8.55054 14.0251 8.19922 13.6738C7.84791 13.3226 7.37183 13.1246 6.875 13.1231H4.67269L3.275 10.6085C3.52178 10.3368 3.68115 9.99718 3.73242 9.63373C3.78369 9.27029 3.72449 8.89983 3.5625 8.57045L5.93875 6.19409L6.1625 6.41781L5.65625 7.92385C5.62058 8.03466 5.6157 8.15308 5.64212 8.26645C5.66854 8.37982 5.72527 8.48388 5.80625 8.56751L6.80181 9.56294C6.91902 9.68013 7.07799 9.74597 7.24375 9.74597C7.40951 9.74597 7.56848 9.68013 7.68569 9.56294L13.3143 3.93509C13.4315 3.81789 13.4974 3.65895 13.4974 3.49321C13.4974 3.32747 13.4315 3.16853 13.3143 3.05133L12.3203 2.05772C12.2375 1.97487 12.1332 1.91677 12.0192 1.88995C11.9052 1.86313 11.786 1.86867 11.675 1.90593L10.1688 2.41211L8.58125 0.824826C8.18468 0.428734 7.67954 0.159107 7.12972 0.0500349C6.5799 -0.0590367 6.01008 -0.00265469 5.49231 0.212052C4.97453 0.426759 4.53205 0.790149 4.22081 1.25628C3.90958 1.72241 3.74356 2.27034 3.74375 2.8308C3.74215 3.20267 3.81485 3.57112 3.9576 3.91452C4.10034 4.25791 4.31025 4.56934 4.575 4.83053L5.055 5.31046L2.67831 7.68676C2.42805 7.5646 2.15348 7.5004 1.875 7.49891C1.37772 7.49891 0.900805 7.69643 0.549175 8.04801C0.197544 8.39959 0 8.87644 0 9.37365C0 9.87086 0.197544 10.3477 0.549175 10.6993C0.900805 11.0509 1.37772 11.2484 1.875 11.2484Z" fill="#4A1301"/>
<path d="M20 13.7483H25V14.9981H20V13.7483Z" fill="#4A1301"/>
</g>
<defs>
<clipPath id="clip0_547_335">
<rect width="30" height="30" fill="white"/>
</clipPath>
</defs>
</svg>
