<svg width="86" height="93" viewBox="0 0 86 93" fill="none" xmlns="http://www.w3.org/2000/svg">
<path d="M39.122 83.3744C60.4916 83.3744 77.8151 76.0336 77.8151 66.9784C77.8151 57.9231 60.4916 50.5824 39.122 50.5824C17.7525 50.5824 0.429016 57.9231 0.429016 66.9784C0.429016 76.0336 17.7525 83.3744 39.122 83.3744Z" fill="#FDF4E3" stroke="#4A1301" stroke-opacity="0.6" stroke-width="0.5"/>
<path d="M40.316 53.2757C48.8011 53.2757 56.4774 54.7403 62.0283 57.104C64.8039 58.2858 67.0429 59.69 68.5864 61.2438C70.1293 62.7971 70.9717 64.4939 70.9717 66.2653C70.9717 68.0368 70.1293 69.7335 68.5864 71.2869C67.0429 72.8407 64.8039 74.2449 62.0283 75.4267C56.4774 77.7903 48.8011 79.2553 40.316 79.2553C31.8309 79.2553 24.1546 77.7903 18.6037 75.4267C15.8281 74.2449 13.5891 72.8407 12.0456 71.2869C10.5027 69.7335 9.66031 68.0368 9.66031 66.2653C9.66031 64.4939 10.5027 62.7971 12.0456 61.2438C13.5891 59.69 15.8281 58.2858 18.6037 57.104C24.1546 54.7403 31.8309 53.2757 40.316 53.2757Z" fill="#E0CAB4" stroke="#4A1301" stroke-opacity="0.6" stroke-width="0.5"/>
<path d="M31.6768 0.999999V3C31.6768 3.55228 32.1245 4 32.6768 4C33.2291 4 33.6768 3.55228 33.6768 3V0.999999C33.6768 0.447716 33.2291 0 32.6768 0C32.1245 0 31.6768 0.447716 31.6768 0.999999Z" fill="#4A1301" fill-opacity="0.6"/>
<path d="M35.6768 0.999996V3C35.6768 3.55229 36.1245 4 36.6768 4C37.2291 4 37.6768 3.55229 37.6768 3V0.999996C37.6768 0.447713 37.2291 0 36.6768 0C36.1245 0 35.6768 0.447713 35.6768 0.999996Z" fill="#4A1301" fill-opacity="0.6"/>
<path d="M39.6768 0.999999V3C39.6768 3.55228 40.1245 4 40.6768 4C41.2291 4 41.6768 3.55228 41.6768 3V0.999999C41.6768 0.447716 41.2291 0 40.6768 0C40.1245 0 39.6768 0.447716 39.6768 0.999999Z" fill="#4A1301" fill-opacity="0.6"/>
<path d="M43.6768 0.999996V3C43.6768 3.55229 44.1245 4 44.6768 4C45.2291 4 45.6768 3.55229 45.6768 3V0.999996C45.6768 0.447713 45.2291 0 44.6768 0C44.1245 0 43.6768 0.447713 43.6768 0.999996Z" fill="#4A1301" fill-opacity="0.6"/>
<path d="M47.6768 0.999996V3C47.6768 3.55229 48.1245 4 48.6768 4C49.2291 4 49.6768 3.55229 49.6768 3V0.999996C49.6768 0.447713 49.2291 0 48.6768 0C48.1245 0 47.6768 0.447713 47.6768 0.999996Z" fill="#4A1301" fill-opacity="0.6"/>
<path d="M26.0891 4.17357C26.6164 3.83756 27.2707 4.00422 27.5505 4.54556C27.8303 5.0871 27.6296 5.79883 27.1022 6.13491L24.6648 7.68789L25.9583 10.1906C26.2381 10.7321 26.0374 11.4432 25.5102 11.7792C25.4517 11.8166 25.3912 11.8472 25.3303 11.8723L23.8557 12.8121L22.2644 13.8264C21.737 14.1624 21.0827 13.9959 20.803 13.4543C20.5234 12.913 20.7239 12.2017 21.2511 11.8657L23.5337 10.4107L23.2045 9.77301L22.3601 8.1388C22.1917 7.81267 22.1983 7.42538 22.3447 7.09516C22.3926 6.74094 22.5899 6.40373 22.9064 6.20203L26.0891 4.17357Z" fill="#4A1301"/>
<path d="M32.1278 5.24902C32.482 4.91699 33.057 4.91699 33.4112 5.24902C33.7654 5.581 33.7653 6.11938 33.4112 6.45137L31.7733 7.98564L33.4112 9.51993C33.7655 9.85178 33.7652 10.3902 33.4112 10.7223C33.3729 10.7582 33.3308 10.7893 33.2879 10.8175L32.2949 11.7488L31.2253 12.7511C30.871 13.083 30.2968 13.0829 29.9425 12.7511C29.5882 12.4191 29.5882 11.8808 29.9425 11.5488L31.4758 10.1112L31.059 9.72063L29.9894 8.71833C29.7765 8.51869 29.6917 8.24466 29.7348 7.98564C29.6918 7.72664 29.7765 7.45249 29.9894 7.25294L31.059 6.25135L32.1278 5.24902Z" fill="#4A1301"/>
<path d="M38.1283 5.24903C38.4825 4.91699 39.057 4.91699 39.4112 5.24903C39.7652 5.58108 39.7655 6.11952 39.4112 6.45145L37.7731 7.98529L39.4112 9.51987C39.7654 9.85179 39.7652 10.3903 39.4112 10.7223C39.3724 10.7587 39.3296 10.7899 39.2861 10.8184L38.2941 11.7487L37.2255 12.751C36.8712 13.083 36.2968 13.083 35.9425 12.751C35.5882 12.419 35.5882 11.8806 35.9425 11.5486L37.4758 10.1108L37.0588 9.72078L35.9895 8.71848C35.7765 8.51877 35.692 8.24443 35.7352 7.98529C35.6922 7.72635 35.7766 7.45237 35.9895 7.25283L37.0588 6.25056L38.1283 5.24903Z" fill="#4A1301"/>
<path d="M43.2255 5.24903C42.8712 4.91699 42.2967 4.91699 41.9425 5.24903C41.5882 5.58106 41.5882 6.11943 41.9425 6.45146L43.5798 7.98529L41.9425 9.51987C41.5882 9.85187 41.5883 10.3903 41.9425 10.7223C41.9805 10.7579 42.022 10.7889 42.0645 10.8169L44.1283 12.751C44.4826 13.083 45.057 13.083 45.4113 12.751C45.7653 12.419 45.7654 11.8806 45.4113 11.5486L43.8779 10.1108L45.3635 8.71848C45.5766 8.51877 45.661 8.24452 45.6178 7.98529C45.6607 7.72631 45.5764 7.45235 45.3635 7.25283L43.2255 5.24903Z" fill="#4A1301"/>
<path d="M49.2254 5.24903C48.8712 4.91699 48.2967 4.91699 47.9425 5.24903C47.5884 5.58108 47.5882 6.11948 47.9425 6.45146L49.5798 7.98529L47.9425 9.51987C47.5882 9.85187 47.5883 10.3903 47.9425 10.7223C47.9814 10.7588 48.0238 10.7906 48.0676 10.819L49.0588 11.7487L50.1282 12.751C50.4825 13.083 51.057 13.083 51.4112 12.751C51.7654 12.419 51.7653 11.8806 51.4112 11.5486L49.8779 10.1116L50.2948 9.72078L51.3635 8.71849C51.5765 8.51878 51.6617 8.24445 51.6185 7.98529C51.6615 7.72629 51.5763 7.45237 51.3635 7.25283L50.2948 6.25056L49.2254 5.24903Z" fill="#4A1301"/>
<path d="M55.2649 4.1736C54.7376 3.83753 54.0829 4.00421 53.803 4.54572C53.5233 5.08722 53.7241 5.79907 54.2513 6.13513L56.6887 7.68761L55.3952 10.1906C55.1157 10.732 55.3162 11.4432 55.8432 11.7793C55.9012 11.8163 55.9617 11.8458 56.0221 11.8708L57.4972 12.812L59.0888 13.8264C59.6161 14.1625 60.2708 13.9958 60.5506 13.4543C60.8302 12.9128 60.6295 12.2009 60.1024 11.8649L57.8199 10.4099L58.1489 9.77354L58.9933 8.13897C59.1615 7.8134 59.1558 7.42658 59.0101 7.09667C58.9626 6.74185 58.764 6.40402 58.447 6.20201L56.8557 5.18825L55.2649 4.1736Z" fill="#4A1301"/>
<path d="M11.7486 92.8443V92.2019C11.9001 92.1951 12.0251 92.1757 12.1239 92.1435C12.2293 92.1113 12.3083 92.0364 12.3609 91.9196C12.4202 91.8028 12.4498 91.6149 12.4498 91.3551V87.6273C12.4498 87.4521 12.4532 87.2837 12.4597 87.1212C12.4729 86.9587 12.4828 86.8359 12.4893 86.7513C12.384 86.7581 12.2523 86.764 12.0942 86.7708C11.9362 86.7708 11.821 86.7738 11.7486 86.7805V86.0311H14.5832V86.6735C14.4384 86.6802 14.3133 86.6997 14.2079 86.7319C14.1026 86.764 14.0202 86.8389 13.961 86.9557C13.9083 87.0658 13.8819 87.2544 13.8819 87.5202V88.9997H14.5931L15.3536 87.7246C15.4656 87.53 15.5841 87.3353 15.7091 87.1406C15.8343 86.946 15.9397 86.8127 16.0252 86.7416C15.9199 86.7483 15.8079 86.7543 15.6894 86.7611C15.5709 86.7678 15.4754 86.7738 15.403 86.7805V86.0311H17.8228V86.6735C17.678 86.6802 17.5199 86.7056 17.3487 86.7513C17.1841 86.797 17.0129 86.8876 16.8351 87.0238C16.6573 87.1601 16.4763 87.3742 16.2919 87.6662L15.3437 89.1651C15.4754 89.2497 15.5906 89.3403 15.6894 89.4377C15.7948 89.5283 15.8869 89.6293 15.9659 89.7394L16.9833 91.1507C17.115 91.3326 17.2499 91.5041 17.3882 91.6666C17.5331 91.8223 17.6812 91.9488 17.8327 92.0461C17.9842 92.1435 18.1323 92.1951 18.2771 92.2019V92.8443H16.7561C16.7034 92.8375 16.6178 92.7791 16.4993 92.6691C16.3808 92.559 16.2557 92.4257 16.124 92.27C15.9923 92.1143 15.8804 91.975 15.7882 91.8515L14.8104 90.4499C14.7248 90.3264 14.6293 90.1998 14.5239 90.0703C14.4252 89.9408 14.3297 89.8435 14.2375 89.7783H13.8819V91.248C13.8819 91.4232 13.8787 91.5917 13.8721 91.7541C13.8655 91.9166 13.8557 92.0394 13.8424 92.124C13.9478 92.1113 14.0795 92.1045 14.2375 92.1045C14.4021 92.0978 14.5174 92.0948 14.5832 92.0948V92.8443H11.7486ZM18.78 92.2019C18.9314 92.1951 19.0565 92.1757 19.1553 92.1435C19.2607 92.1113 19.3397 92.0364 19.3924 91.9196C19.4516 91.8028 19.4812 91.6149 19.4812 91.3551V87.6273C19.4812 87.4521 19.4845 87.2837 19.4911 87.1212C19.5043 86.9587 19.5141 86.8359 19.5207 86.7513C19.4154 86.7581 19.2837 86.764 19.1257 86.7708C18.9676 86.7708 18.8524 86.7738 18.78 86.7805V86.0311C19.2475 86.0243 19.715 86.0213 20.1825 86.0213C20.65 86.0213 21.1175 86.0183 21.585 86.0116C22.1645 86.0049 22.6682 86.0797 23.0961 86.2355C23.5307 86.3912 23.8633 86.6315 24.0937 86.9557C24.3307 87.2799 24.4427 87.7022 24.4295 88.221C24.4229 88.4808 24.3604 88.7369 24.2418 88.9899C24.1233 89.2363 23.9488 89.4639 23.7184 89.6713C23.4879 89.8727 23.1982 90.0381 22.8492 90.1677C22.5003 90.2972 22.092 90.369 21.6245 90.3818C21.4796 90.3885 21.3512 90.3915 21.2393 90.3915C21.1339 90.3915 21.0253 90.3885 20.9134 90.3818V91.2383C20.9134 91.4202 20.9101 91.5917 20.9035 91.7541C20.8969 91.9166 20.887 92.0394 20.8739 92.124C20.9463 92.1173 21.0385 92.1143 21.1504 92.1143C21.2623 92.1075 21.371 92.1045 21.4764 92.1045C21.5883 92.0978 21.6673 92.0948 21.7134 92.0948V92.8443H18.78V92.2019ZM20.9134 89.6518C20.9858 89.6585 21.0583 89.6645 21.1307 89.6713C21.2031 89.678 21.2788 89.681 21.3578 89.681C21.72 89.681 22.013 89.6226 22.2369 89.5058C22.4673 89.3823 22.6352 89.2071 22.7406 88.9802C22.846 88.7466 22.8986 88.4644 22.8986 88.1334C22.8986 87.8092 22.8525 87.5494 22.7603 87.3548C22.6747 87.1601 22.5628 87.0171 22.4245 86.9265C22.2862 86.8292 22.1414 86.7678 21.9899 86.7416C21.8385 86.7094 21.7002 86.6929 21.5751 86.6929C21.4368 86.6929 21.3183 86.7094 21.2196 86.7416C21.1208 86.7738 21.045 86.8457 20.9924 86.9557C20.9397 87.0658 20.9134 87.235 20.9134 87.4618V89.6518ZM26.5004 93C26.2897 93 26.0921 92.9581 25.9078 92.8735C25.7234 92.7956 25.5753 92.6855 25.4633 92.5425C25.3514 92.3935 25.2954 92.2243 25.2954 92.0364C25.2954 91.835 25.3547 91.6501 25.4732 91.4816C25.5917 91.3132 25.7827 91.2286 26.046 91.2286C26.2699 91.2286 26.4378 91.29 26.5497 91.4135C26.6683 91.5303 26.7275 91.6695 26.7275 91.832C26.7275 91.9031 26.7144 91.975 26.688 92.0461C26.6683 92.1173 26.6321 92.1891 26.5794 92.2603C26.5926 92.2797 26.609 92.2962 26.6288 92.3089C26.6551 92.3217 26.6848 92.3284 26.7177 92.3284C26.8889 92.3284 27.0699 92.2019 27.2609 91.9488C27.3201 91.8642 27.3761 91.7766 27.4288 91.686C27.4815 91.5954 27.5374 91.4846 27.5967 91.3551C27.6559 91.2188 27.7251 91.0534 27.8041 90.8587C27.8831 90.6573 27.9753 90.414 28.0806 90.1287C28.1926 89.8367 28.3243 89.4863 28.4757 89.0775C28.6272 88.6687 28.805 88.1888 29.0091 87.637C29.0815 87.4551 29.1507 87.2866 29.2165 87.1309C29.2823 86.9752 29.3581 86.8457 29.4436 86.7416L28.6831 86.7805V86.0311H30.8264V86.6735C30.675 86.6735 30.5433 86.6997 30.4313 86.7513C30.3194 86.797 30.2174 86.8876 30.1251 87.0238C30.033 87.1534 29.9375 87.345 29.8387 87.5981L28.3967 91.3454C28.2124 91.8193 28.0149 92.1757 27.8041 92.416C27.5934 92.6496 27.3761 92.8053 27.1522 92.8832C26.9349 92.9611 26.7177 93 26.5004 93ZM27.814 91.3162L25.4732 87.7052C25.381 87.5562 25.2954 87.387 25.2164 87.199C25.1374 87.0044 25.0979 86.8554 25.0979 86.7513L24.6139 86.7805V86.0311H27.5275V86.6735C27.3366 86.6607 27.1786 86.6802 27.0535 86.7319C26.9284 86.7835 26.8527 86.8681 26.8263 86.9849C26.8 87.095 26.8395 87.241 26.9448 87.4229L27.7646 88.8245C27.8634 88.9869 27.9786 89.1681 28.1103 89.3695C28.242 89.5709 28.3374 89.7267 28.3967 89.8367L27.814 91.3162ZM31.589 92.8443V92.2019C31.7404 92.1951 31.8655 92.1757 31.9643 92.1435C32.0696 92.1113 32.1486 92.0364 32.2013 91.9196C32.2606 91.8028 32.2902 91.6149 32.2902 91.3551V87.6273C32.2902 87.4521 32.2935 87.2837 32.3001 87.1212C32.3132 86.9587 32.3231 86.8359 32.3297 86.7513C32.2243 86.7581 32.0927 86.764 31.9346 86.7708C31.7766 86.7708 31.6614 86.7738 31.589 86.7805V86.0311H36.5273L36.5866 87.9193H35.9347C35.9347 87.5622 35.8721 87.2934 35.7471 87.1114C35.6219 86.9295 35.4672 86.8097 35.2829 86.7513C35.0985 86.6862 34.9174 86.657 34.7396 86.6637L34.3841 86.6735C34.2458 86.6735 34.1273 86.6929 34.0285 86.7319C33.9298 86.764 33.854 86.8419 33.8014 86.9655C33.7486 87.0822 33.7223 87.2672 33.7223 87.5202V91.248C33.7223 91.4232 33.719 91.5917 33.7125 91.7541C33.7059 91.9166 33.696 92.0394 33.6828 92.124C33.7552 92.1173 33.8507 92.1143 33.9693 92.1143C34.0878 92.1075 34.203 92.1045 34.3149 92.1045C34.4335 92.0978 34.5157 92.0948 34.5619 92.0948V92.8443H31.589ZM41.2384 93C41.0277 93 40.8301 92.9581 40.6458 92.8735C40.4614 92.7956 40.3133 92.6855 40.2013 92.5425C40.0894 92.3935 40.0334 92.2243 40.0334 92.0364C40.0334 91.835 40.0927 91.6501 40.2112 91.4816C40.3297 91.3132 40.5207 91.2286 40.7841 91.2286C41.0079 91.2286 41.1758 91.29 41.2878 91.4135C41.4063 91.5303 41.4656 91.6695 41.4656 91.832C41.4656 91.9031 41.4524 91.975 41.4261 92.0461C41.4063 92.1173 41.3701 92.1891 41.3174 92.2603C41.3306 92.2797 41.3471 92.2962 41.3668 92.3089C41.3931 92.3217 41.4227 92.3284 41.4557 92.3284C41.6269 92.3284 41.8079 92.2019 41.9989 91.9488C42.0582 91.8642 42.1141 91.7766 42.1668 91.686C42.2195 91.5954 42.2755 91.4846 42.3347 91.3551C42.394 91.2188 42.4631 91.0534 42.5421 90.8587C42.6212 90.6573 42.7133 90.414 42.8187 90.1287C42.9306 89.8367 43.0623 89.4863 43.2138 89.0775C43.3652 88.6687 43.543 88.1888 43.7471 87.637C43.8195 87.4551 43.8887 87.2866 43.9545 87.1309C44.0203 86.9752 44.0961 86.8457 44.1817 86.7416L43.4212 86.7805V86.0311H45.5644V86.6735C45.4129 86.6735 45.2813 86.6997 45.1694 86.7513C45.0574 86.797 44.9553 86.8876 44.8632 87.0238C44.771 87.1534 44.6755 87.345 44.5768 87.5981L43.1348 91.3454C42.9504 91.8193 42.7528 92.1757 42.5421 92.416C42.3314 92.6496 42.1141 92.8053 41.8903 92.8832C41.673 92.9611 41.4557 93 41.2384 93ZM42.552 91.3162L40.2112 87.7052C40.119 87.5562 40.0334 87.387 39.9544 87.199C39.8754 87.0044 39.8359 86.8554 39.8359 86.7513L39.3519 86.7805V86.0311H42.2656V86.6735C42.0746 86.6607 41.9166 86.6802 41.7915 86.7319C41.6664 86.7835 41.5906 86.8681 41.5643 86.9849C41.538 87.095 41.5775 87.241 41.6829 87.4229L42.5026 88.8245C42.6014 88.9869 42.7166 89.1681 42.8483 89.3695C42.98 89.5709 43.0755 89.7267 43.1348 89.8367L42.552 91.3162ZM53.0826 93C52.523 93 52.0423 92.9094 51.6406 92.7275C51.239 92.5455 50.9065 92.3022 50.6431 91.9975C50.3797 91.686 50.1789 91.3386 50.0406 90.956C49.9089 90.5734 49.8266 90.1841 49.7937 89.7881L48.4603 89.8075V91.248C48.4603 91.4232 48.457 91.5917 48.4504 91.7541C48.4439 91.9166 48.434 92.0394 48.4208 92.124C48.5262 92.1113 48.6578 92.1045 48.8159 92.1045C48.9805 92.0978 49.0958 92.0948 49.1616 92.0948V92.8443H46.3269V92.2019C46.4784 92.1951 46.6035 92.1757 46.7022 92.1435C46.8076 92.1113 46.8866 92.0364 46.9393 91.9196C46.9986 91.8028 47.0282 91.6149 47.0282 91.3551V87.6273C47.0282 87.4521 47.0315 87.2837 47.0381 87.1212C47.0513 86.9587 47.0612 86.8359 47.0677 86.7513C46.9624 86.7581 46.8306 86.764 46.6726 86.7708C46.5146 86.7708 46.3994 86.7738 46.3269 86.7805V86.0311H49.1616V86.6735C49.0168 86.6802 48.8916 86.6997 48.7862 86.7319C48.6809 86.764 48.5986 86.8389 48.5393 86.9557C48.4867 87.0658 48.4603 87.2544 48.4603 87.5202V89.0386H49.8036C49.8431 88.656 49.9386 88.2764 50.09 87.8998C50.248 87.5232 50.4653 87.1826 50.7418 86.8779C51.0184 86.5731 51.3542 86.3298 51.7493 86.1479C52.1443 85.9659 52.5987 85.8753 53.1123 85.8753C53.7115 85.8753 54.2283 85.9824 54.6629 86.1965C55.0975 86.4107 55.4531 86.6959 55.7296 87.053C56.0062 87.4034 56.2103 87.786 56.342 88.2016C56.4737 88.6171 56.5395 89.0289 56.5395 89.4377C56.5395 89.8397 56.4671 90.2485 56.3222 90.664C56.184 91.0796 55.97 91.4652 55.6802 91.8223C55.3972 92.1727 55.0382 92.4579 54.6037 92.6788C54.1757 92.8929 53.6687 93 53.0826 93ZM53.1814 92.2895C53.5238 92.2895 53.8103 92.2086 54.0407 92.0461C54.2712 91.8777 54.4555 91.6598 54.5938 91.394C54.7321 91.1282 54.8308 90.8392 54.8901 90.5278C54.956 90.2096 54.9889 89.9019 54.9889 89.6031C54.9889 89.1554 54.9494 88.7466 54.8703 88.3768C54.7913 88.0069 54.6695 87.6887 54.5049 87.4229C54.3403 87.1504 54.1296 86.943 53.8728 86.8C53.6226 86.651 53.3263 86.5791 52.9839 86.5859C52.6744 86.5926 52.4144 86.6832 52.2036 86.8584C51.9929 87.0268 51.825 87.2477 51.6999 87.5202C51.5748 87.786 51.4826 88.078 51.4233 88.3962C51.3707 88.7144 51.3443 89.0221 51.3443 89.3209C51.3443 89.6256 51.374 89.9505 51.4332 90.2942C51.4991 90.6378 51.6011 90.9628 51.7394 91.2675C51.8843 91.5722 52.0752 91.8193 52.3123 92.0072C52.5493 92.1951 52.8391 92.2895 53.1814 92.2895ZM62.4867 88.2308C62.4867 87.8804 62.4373 87.5914 62.3386 87.3645C62.2398 87.1309 62.0982 86.9587 61.9138 86.8486C61.7361 86.7319 61.5221 86.6765 61.2719 86.6832H60.7978V91.248C60.7978 91.4232 60.7945 91.5917 60.7879 91.7541C60.7814 91.9166 60.7715 92.0394 60.7583 92.124C60.8703 92.1113 61.0118 92.1045 61.183 92.1045C61.3607 92.0978 61.4826 92.0948 61.5484 92.0948V92.8443H58.6644V92.2019C58.8159 92.1951 58.9409 92.1757 59.0397 92.1435C59.1451 92.1113 59.2241 92.0364 59.2767 91.9196C59.336 91.8028 59.3656 91.6149 59.3656 91.3551V86.6929H58.9113C58.536 86.6997 58.2397 86.8262 58.0224 87.0725C57.8051 87.3188 57.6965 87.7052 57.6965 88.2308H57.0446L57.094 86.0311H63.0793L63.1386 88.2308H62.4867ZM62.8194 92.8443V92.1727C63.0037 92.1727 63.1519 92.121 63.2639 92.0169C63.3758 91.9129 63.4679 91.7766 63.5404 91.6082C63.6194 91.4397 63.6951 91.2578 63.7676 91.0631L65.6935 85.8559H66.3849L68.4887 91.1604C68.5282 91.2578 68.5808 91.4068 68.6467 91.6082C68.7125 91.8028 68.752 91.975 68.7652 92.124C68.8771 92.1113 68.9825 92.1045 69.0813 92.1045C69.1866 92.0978 69.2722 92.0948 69.3381 92.0948V92.8443H66.6812V92.2019C66.8655 92.2019 66.9907 92.1659 67.0565 92.0948C67.1289 92.0169 67.1618 91.9129 67.1553 91.7833C67.1487 91.6538 67.1125 91.5078 67.0467 91.3454L66.8491 90.81L64.7059 90.849L64.5478 91.3064C64.5149 91.391 64.4655 91.5176 64.3997 91.686C64.3404 91.8485 64.2844 91.9848 64.2318 92.0948C64.3371 92.0821 64.4622 92.0753 64.6071 92.0753C64.7585 92.0686 64.8672 92.0656 64.933 92.0656V92.8443H62.8194ZM64.9528 90.119H66.6022L66.1479 88.9023C66.0622 88.6687 65.9865 88.4352 65.9207 88.2016C65.8548 87.9612 65.8055 87.7508 65.7726 87.5689H65.7627C65.7363 87.679 65.6968 87.8444 65.6442 88.0653C65.5914 88.2862 65.5091 88.549 65.3972 88.8537L64.9528 90.119Z" fill="#4A1301"/>
<path d="M76.2355 26.2768C80.8472 27.5125 82.5816 35.9926 80.1097 45.2179C77.6378 54.4432 71.8957 60.9199 67.284 59.6842C62.6725 58.4484 60.9379 49.9683 63.4098 40.7431C65.8817 31.5181 71.6239 25.0413 76.2355 26.2768ZM73.7194 34.5541C71.4136 33.9364 68.5425 37.1748 67.3065 41.7873C66.0706 46.3998 66.9379 50.6398 69.2436 51.2578C71.5495 51.8757 74.4205 48.6373 75.6565 44.0246C76.8924 39.412 76.0252 35.1719 73.7194 34.5541Z" fill="#FDF4E3"/>
<path d="M76.2355 26.2768L76.3002 26.0353L76.3002 26.0353L76.2355 26.2768ZM80.1097 45.2179L80.3512 45.2826L80.3512 45.2826L80.1097 45.2179ZM67.284 59.6842L67.2193 59.9257L67.2193 59.9257L67.284 59.6842ZM63.4098 40.7431L63.1683 40.6784L63.1683 40.6784L63.4098 40.7431ZM73.7194 34.5541L73.7841 34.3126L73.7841 34.3126L73.7194 34.5541ZM67.3065 41.7873L67.065 41.7226L67.065 41.7226L67.3065 41.7873ZM69.2436 51.2578L69.1789 51.4993L69.1789 51.4993L69.2436 51.2578ZM75.6565 44.0246L75.898 44.0893L75.898 44.0893L75.6565 44.0246ZM76.2355 26.2768L76.1708 26.5183C78.3359 27.0984 79.8889 29.4028 80.584 32.8013C81.2758 36.1835 81.0963 40.5699 79.8683 45.1532L80.1097 45.2179L80.3512 45.2826C81.595 40.6406 81.7842 36.1743 81.0739 32.7011C80.3668 29.2444 78.7468 26.6909 76.3002 26.0353L76.2355 26.2768ZM80.1097 45.2179L79.8683 45.1532C78.6402 49.7365 76.6024 53.6249 74.3122 56.2081C72.0109 58.8038 69.5138 60.0229 67.3487 59.4428L67.284 59.6842L67.2193 59.9257C69.6659 60.5813 72.3457 59.1799 74.6864 56.5398C77.0381 53.8872 79.1074 49.9246 80.3512 45.2826L80.1097 45.2179ZM67.284 59.6842L67.3487 59.4428C65.1837 58.8625 63.6307 56.5581 62.9356 53.1596C62.2438 49.7774 62.4232 45.3911 63.6513 40.8078L63.4098 40.7431L63.1683 40.6784C61.9245 45.3204 61.7353 49.7867 62.4457 53.2598C63.1528 56.7165 64.7728 59.27 67.2193 59.9257L67.284 59.6842ZM63.4098 40.7431L63.6513 40.8078C64.8794 36.2247 66.9171 32.3363 69.2073 29.7531C71.5086 27.1574 74.0058 25.9383 76.1708 26.5183L76.2355 26.2768L76.3002 26.0353C73.8536 25.3799 71.1739 26.7813 68.8332 29.4214C66.4814 32.074 64.4121 36.0365 63.1683 40.6784L63.4098 40.7431ZM73.7194 34.5541L73.7841 34.3126C72.4904 33.966 71.1049 34.7124 69.9247 36.0435C68.7334 37.3872 67.6909 39.387 67.065 41.7226L67.3065 41.7873L67.548 41.852C68.1581 39.5751 69.1691 37.6494 70.2988 36.3752C71.4396 35.0885 72.6426 34.5244 73.6547 34.7956L73.7194 34.5541ZM67.3065 41.7873L67.065 41.7226C66.4392 44.0582 66.3422 46.3113 66.702 48.0706C67.0585 49.8135 67.8853 51.1526 69.1789 51.4993L69.2436 51.2578L69.3083 51.0163C68.2962 50.7451 67.5365 49.6551 67.1919 47.9704C66.8506 46.3021 66.9379 44.1289 67.548 41.852L67.3065 41.7873ZM69.2436 51.2578L69.1789 51.4993C70.4726 51.8459 71.8581 51.0997 73.0383 49.7685C74.2296 48.4248 75.2721 46.425 75.898 44.0893L75.6565 44.0246L75.415 43.9599C74.8049 46.2369 73.7939 48.1626 72.6642 49.4368C71.5234 50.7235 70.3205 51.2875 69.3083 51.0163L69.2436 51.2578ZM75.6565 44.0246L75.898 44.0893C76.5238 41.7537 76.6208 39.5005 76.261 37.7412C75.9045 35.9983 75.0778 34.6592 73.7841 34.3126L73.7194 34.5541L73.6547 34.7956C74.6668 35.0668 75.4265 36.1567 75.7711 37.8414C76.1124 39.5098 76.0251 41.683 75.415 43.9599L75.6565 44.0246Z" fill="#4A1301" fill-opacity="0.6"/>
<path d="M38.0303 16C55.3461 16 69.3842 21.6148 69.3848 28.541C69.3848 34.9107 64.5277 41.4591 64.3215 47.8255C64.2809 49.0796 64.1427 50.3497 63.9004 51.6279C61.7181 63.1393 51.6578 71.4715 39.9415 71.4717H36.5997C25.0285 71.4716 15.051 63.3399 12.7159 52.0068C12.4706 50.8163 12.3161 49.6316 12.2473 48.4594C11.8608 41.8749 6.6768 35.1368 6.6768 28.541C6.67742 21.6148 20.7147 16.0001 38.0303 16Z" fill="#FDF4E3"/>
<path d="M38.0303 16L38.0303 15.75L38.0303 15.75L38.0303 16ZM69.3848 28.541L69.6348 28.541L69.6348 28.541L69.3848 28.541ZM63.9004 51.6279L64.1461 51.6745L64.1461 51.6745L63.9004 51.6279ZM39.9415 71.4717L39.9415 71.7217L39.9415 71.7217L39.9415 71.4717ZM36.5997 71.4717L36.5997 71.7217H36.5997V71.4717ZM12.7159 52.0068L12.471 52.0573L12.471 52.0573L12.7159 52.0068ZM6.6768 28.541L6.4268 28.541V28.541H6.6768ZM64.3215 47.8255L64.0716 47.8174L64.3215 47.8255ZM38.0303 16V16.25C46.6645 16.25 54.4701 17.6503 60.1079 19.9053C62.9275 21.033 65.1926 22.3697 66.7487 23.8411C68.3043 25.3121 69.1347 26.9004 69.1348 28.541L69.3848 28.541L69.6348 28.541C69.6346 26.7185 68.7101 25.0077 67.0922 23.4778C65.4749 21.9485 63.1481 20.5827 60.2936 19.441C54.5833 17.1571 46.7119 15.75 38.0303 15.75V16ZM64.3215 47.8255L64.0716 47.8174C64.0314 49.0586 63.8947 50.3159 63.6548 51.5814L63.9004 51.6279L64.1461 51.6745C64.3908 50.3836 64.5303 49.1006 64.5714 47.8336L64.3215 47.8255ZM63.9004 51.6279L63.6548 51.5814C61.4949 62.9747 51.5377 71.2215 39.9414 71.2217L39.9415 71.4717L39.9415 71.7217C51.778 71.7215 61.9414 63.3039 64.1461 51.6745L63.9004 51.6279ZM39.9415 71.4717V71.2217H36.5997V71.4717V71.7217H39.9415V71.4717ZM36.5997 71.4717L36.5997 71.2217C25.1471 71.2216 15.2719 63.1733 12.9607 51.9564L12.7159 52.0068L12.471 52.0573C14.8301 63.5066 24.9099 71.7216 36.5997 71.7217L36.5997 71.4717ZM12.7159 52.0068L12.9607 51.9564C12.7179 50.7777 12.565 49.605 12.4969 48.4447L12.2473 48.4594L11.9978 48.474C12.0673 49.6583 12.2233 50.8549 12.471 52.0573L12.7159 52.0068ZM6.6768 28.541L6.9268 28.541C6.92695 26.9004 7.75731 25.3121 9.31281 23.8411C10.8688 22.3697 13.1338 21.0331 15.9533 19.9053C21.5909 17.6504 29.3962 16.25 38.0303 16.25L38.0303 16L38.0303 15.75C29.3488 15.75 21.4777 17.1571 15.7676 19.4411C12.9132 20.5828 10.5865 21.9485 8.96927 23.4779C7.35149 25.0077 6.42697 26.7186 6.4268 28.541L6.6768 28.541ZM12.2473 48.4594L12.4969 48.4447C12.3007 45.1029 10.8883 41.7305 9.54897 38.4109C8.20144 35.0709 6.9268 31.7823 6.9268 28.541H6.6768H6.4268C6.4268 31.8955 7.74418 35.2739 9.08529 38.598C10.4346 41.9425 11.8074 45.2314 11.9978 48.474L12.2473 48.4594ZM69.3848 28.541H69.1348C69.1348 31.6714 67.9405 34.857 66.6971 38.0949C65.4614 41.3127 64.1764 44.5836 64.0716 47.8174L64.3215 47.8255L64.5714 47.8336C64.6728 44.701 65.9195 41.5145 67.1639 38.2741C68.4005 35.0538 69.6348 31.7803 69.6348 28.541H69.3848Z" fill="#4A1301" fill-opacity="0.6"/>
<path d="M51.1871 73.1716C51.0597 71.7307 52.7671 70.4064 55.0008 70.2132C56.6123 70.0739 58.0571 70.5618 58.7852 71.3854L79.3682 69.6058C79.926 69.5576 80.4186 69.9657 80.4672 70.5173C80.5162 71.0688 80.1029 71.5553 79.5451 71.6036L59.1189 73.3696C58.6497 74.4272 57.2194 75.2791 55.4628 75.4313C53.229 75.6241 51.3147 74.6129 51.1871 73.1716Z" fill="#FDF4E3" stroke="#4A1301" stroke-opacity="0.6" stroke-width="0.5"/>
<rect x="53.2587" y="71.0678" width="4.16827" height="2.08414" rx="1.04207" fill="#E0CAB4"/>
<ellipse cx="38.0306" cy="28.8631" rx="24.1182" ry="8.0394" fill="#4A1301"/>
</svg>
